<svg viewBox="0 0 125 125" xmlns="http://www.w3.org/2000/svg"><rect width="125" height="125" style="fill:#fff"/><path style="fill:none;stroke:#000;stroke-linecap:butt;stroke-linejoin:round;stroke-width:5" d="M122.5 122.5H2.5v-10h10v-10l15-10v-55l-20-10v-25h25v10h20v-10h20v10h20v-10h25v25l-20 10v55l15 10v10h10zm-110-10h100m0-10h-100m15-10h70m0-55h-70m-20-10h110"/><path style="fill:#008dd2;fill-rule:evenodd" d="M88.803 42.688A29.97 29.97 0 0 1 92.5 55.334h-4.094v3.749H92.5c-.95 15.756-14.028 28.23-29.991 28.23-15.98 0-29.042-12.474-30.009-28.23h4.112v-3.749H32.5a29.501 29.501 0 0 1 3.714-12.646zM64.409 77.136c1.468.692 2.47 2.195 2.47 3.957 0 2.418-1.969 4.353-4.37 4.353-2.419 0-4.388-1.934-4.388-4.353 0-1.762 1.002-3.265 2.47-3.957V61.209a4.396 4.396 0 0 1-2.229-5.39l-6.323-6.323 2.713-2.678 6.288 6.306a4.17 4.17 0 0 1 1.469-.26c2.401 0 4.37 1.97 4.37 4.389 0 .5-.086 1.002-.241 1.45l.017.018 6.323 6.306a4.305 4.305 0 0 1 1.434-.242c2.419 0 4.388 1.97 4.388 4.37a4.383 4.383 0 0 1-4.388 4.39 4.383 4.383 0 0 1-4.146-5.823l-5.857-5.857v12.232z"/></svg>
